# xmcd
#
# Track frame offsets: 
#        150
#        12885
#        26002
#        38780
#        53342
#        75600
#        87142
#        101145
#        116135
#        128707
#        139575
#        152787
#        165902
#        179080
#        189612
#        201330
#        214805
#        229867
#
# Disc length: 3257 seconds
#
# Revision: 3
# Processed by: cddbd v1.5.1PL0 Copyright (c) Steve Scherf et al.
# Submitted via: ExactAudioCopy v0.95b3
#
DISCID=ee0cb712
DTITLE=Various Artist - The Story Of The Blues [CD1]
DYEAR=1993
DGENRE=Blues
TTITLE0=John Lee Hooker - Mr. Lucky
TTITLE1=Howlin' Wolf - Tell Me
TTITLE2=B.B. King - Why I Sing The Blues
TTITLE3=Lightin' Hopkins - Blues In The Bottle
TTITLE4=Mouddy Waters - Country Boy
TTITLE5=Willie Dixon - Built For Comfort
TTITLE6=Lowell Fulson - Tramp
TTITLE7=Sonny Boy Williamson II - The Sky Is Crying
TTITLE8=Roosvelt Sykes - Satellite Baby
TTITLE9=J.B. Lenoir - Mama Talk To Your Daughter
TTITLE10=Buddy Guy - Drinking Muddy Water
TTITLE11=Memphis Slim - Blue And Lonesome
TTITLE12=Lonnie Johnson - She Devil
TTITLE13=Arthur "Big Boy" Crudup - I'm In The Mood
TTITLE14=Champion Jack Dupree - Blues For Everybody
TTITLE15=Robert Johnson - They're Red Hot
TTITLE16=Big Bill Broonzy - House Rent Stomp
TTITLE17=Leadbelly - Easy Rider
EXTD=YEAR: 1993 ID3G: 0
EXTT0=
EXTT1=
EXTT2=
EXTT3=
EXTT4=
EXTT5=
EXTT6=
EXTT7=
EXTT8=
EXTT9=
EXTT10=
EXTT11=
EXTT12=
EXTT13=
EXTT14=
EXTT15=
EXTT16=
EXTT17=
PLAYORDER=
